<svg xmlns="http://www.w3.org/2000/svg" viewBox="0 0 995.49 123.39"><g id="b2f3d6d7-fe1a-447e-994e-45a17b20eafc" data-name="Layer 2"><g id="b41d24b4-8bf2-44a3-afdf-df6ab01820b8" data-name="icon-0"><g id="a6532970-f7db-4da5-ac14-b7a160ee33d1" data-name="tight-bounds"><path id="b095b3a9-8f00-429a-85fa-6fcc883452c4" data-name="qz-0" d="M372.63,0h0c1.36,0,2.47,4.46,2.47,10V113.44c0,5.5-1.11,10-2.47,10h0c-1.37,0-2.48-4.45-2.48-10V10C370.15,4.46,371.26,0,372.63,0Z" style="fill:#e8ebf7"/><g id="bf7cf5ac-53d9-44d7-889f-5d8099e9b289" data-name="textblocktransform"><path id="f13d8578-35c6-4cdf-9df3-bdec68f67e20" data-name="text-0" d="M427.5,42.16h0a1.83,1.83,0,0,1,1.39.63h0L432.77,47a21.26,21.26,0,0,1-7.91,6.11,27.16,27.16,0,0,1-11.28,2.13h0a26.65,26.65,0,0,1-10.58-2,23.35,23.35,0,0,1-8-5.59,24.76,24.76,0,0,1-5.1-8.55,32.15,32.15,0,0,1-1.77-10.85h0a29.24,29.24,0,0,1,2-10.93,25.1,25.1,0,0,1,5.56-8.54,25.26,25.26,0,0,1,8.57-5.57,29.68,29.68,0,0,1,11-2h0a26,26,0,0,1,10.3,1.89,23.79,23.79,0,0,1,7.54,5h0l-3.29,4.56a3,3,0,0,1-.74.77,2.14,2.14,0,0,1-1.26.33h0a2.89,2.89,0,0,1-1.73-.66,20.27,20.27,0,0,0-2.22-1.42,18.16,18.16,0,0,0-3.42-1.43,17.58,17.58,0,0,0-5.25-.66h0a17.65,17.65,0,0,0-6.86,1.3,15.53,15.53,0,0,0-5.37,3.71,17.1,17.1,0,0,0-3.51,5.87,22.8,22.8,0,0,0-1.25,7.78h0a23.42,23.42,0,0,0,1.25,7.92A17.36,17.36,0,0,0,402.84,42a14.66,14.66,0,0,0,5.07,3.64,15.74,15.74,0,0,0,6.29,1.26h0a26.76,26.76,0,0,0,3.64-.22,15.69,15.69,0,0,0,3-.7,13,13,0,0,0,2.58-1.21,17.42,17.42,0,0,0,2.45-1.86h0a3.47,3.47,0,0,1,.76-.53A2,2,0,0,1,427.5,42.16Zm41.56-11.22V54.63H465a4.48,4.48,0,0,1-2-.38,2.5,2.5,0,0,1-1.09-1.56h0L461.09,50a28.54,28.54,0,0,1-2.79,2.26,17.55,17.55,0,0,1-2.84,1.62,14.39,14.39,0,0,1-3.1,1,18.68,18.68,0,0,1-3.65.33h0a14.28,14.28,0,0,1-4.39-.65,9.69,9.69,0,0,1-3.46-1.91,8.73,8.73,0,0,1-2.24-3.19,11.21,11.21,0,0,1-.81-4.42h0a8.72,8.72,0,0,1,1.11-4.18,10.41,10.41,0,0,1,3.72-3.73,23.55,23.55,0,0,1,6.9-2.76,49.09,49.09,0,0,1,10.72-1.25h0V30.94q0-3.77-1.59-5.57A5.85,5.85,0,0,0,454,23.56h0a11.18,11.18,0,0,0-3.65.51,14.84,14.84,0,0,0-2.55,1.15l-2,1.14a4,4,0,0,1-2,.52h0a2.65,2.65,0,0,1-1.57-.47,3.82,3.82,0,0,1-1.06-1.17h0l-1.64-2.9a22.31,22.31,0,0,1,15.6-5.92h0a15.18,15.18,0,0,1,5.88,1.08,12.49,12.49,0,0,1,4.36,3,12.74,12.74,0,0,1,2.73,4.59,17.68,17.68,0,0,1,.92,5.85ZM451.52,49h0a12,12,0,0,0,2.55-.26A10.12,10.12,0,0,0,456.3,48a11.52,11.52,0,0,0,2-1.26,20.78,20.78,0,0,0,2-1.78h0V38.62a49.21,49.21,0,0,0-6.6.67,17.84,17.84,0,0,0-4.27,1.26,5.48,5.48,0,0,0-2.28,1.8,4,4,0,0,0-.67,2.22h0a4,4,0,0,0,1.4,3.41A6.12,6.12,0,0,0,451.52,49ZM487,54.63h-9V17.12h5.3a2.88,2.88,0,0,1,1.94.51,3,3,0,0,1,.73,1.76h0l.54,4.53a17.7,17.7,0,0,1,4.73-5.48,9.85,9.85,0,0,1,6.06-2h0a7.8,7.8,0,0,1,4.61,1.29h0l-1.17,6.75a1.48,1.48,0,0,1-.48.94,1.63,1.63,0,0,1-1,.28h0a6,6,0,0,1-1.51-.27,10.58,10.58,0,0,0-2.51-.24h0a7.64,7.64,0,0,0-4.83,1.55,11.8,11.8,0,0,0-3.4,4.54h0Zm71.79-12.47h0a1.83,1.83,0,0,1,1.39.63h0L564,47a21.25,21.25,0,0,1-7.93,6.11,27.14,27.14,0,0,1-11.27,2.13h0a26.73,26.73,0,0,1-10.59-2,23.18,23.18,0,0,1-8-5.59,24.33,24.33,0,0,1-5.11-8.55,32.15,32.15,0,0,1-1.77-10.85h0a29.24,29.24,0,0,1,2-10.93,25.08,25.08,0,0,1,5.55-8.54,25.36,25.36,0,0,1,8.57-5.57,29.66,29.66,0,0,1,11-2h0a25.91,25.91,0,0,1,10.28,1.89,23.88,23.88,0,0,1,7.56,5h0L561,12.62a3.08,3.08,0,0,1-.76.77,2.1,2.1,0,0,1-1.26.33h0a2.88,2.88,0,0,1-1.71-.66,19.81,19.81,0,0,0-2.24-1.42,17.1,17.1,0,0,0-3.42-1.43,17.44,17.44,0,0,0-5.23-.66h0a17.62,17.62,0,0,0-6.86,1.3,15.39,15.39,0,0,0-5.38,3.71,17.41,17.41,0,0,0-3.51,5.87,22.55,22.55,0,0,0-1.26,7.78h0a23.17,23.17,0,0,0,1.26,7.92A17.85,17.85,0,0,0,534.09,42a14.83,14.83,0,0,0,5.09,3.64,15.7,15.7,0,0,0,6.29,1.26h0a26.55,26.55,0,0,0,3.62-.22,15.34,15.34,0,0,0,3-.7,13.39,13.39,0,0,0,2.6-1.21,16.73,16.73,0,0,0,2.43-1.86h0a3.36,3.36,0,0,1,.78-.53A1.92,1.92,0,0,1,558.77,42.16ZM580,54.63h-9V.31h9V21.17a19.4,19.4,0,0,1,4.83-3.36A14,14,0,0,1,591,16.54h0a13.3,13.3,0,0,1,5.44,1,10.65,10.65,0,0,1,4,2.92A13.13,13.13,0,0,1,602.8,25a19.06,19.06,0,0,1,.82,5.77h0V54.63h-9V30.77A8,8,0,0,0,593,25.44a5.92,5.92,0,0,0-4.78-1.88h0a9.43,9.43,0,0,0-4.38,1.05,15.78,15.78,0,0,0-3.88,2.9h0Zm48.55-38.09h0a20.72,20.72,0,0,1,7.62,1.34A16.53,16.53,0,0,1,642,21.73a17,17,0,0,1,3.73,6.07,23,23,0,0,1,1.32,8h0a23.14,23.14,0,0,1-1.32,8A17.47,17.47,0,0,1,642,50a16.34,16.34,0,0,1-5.83,3.88,20.52,20.52,0,0,1-7.62,1.36h0a20.68,20.68,0,0,1-7.63-1.36A16.45,16.45,0,0,1,615,50a17.53,17.53,0,0,1-3.76-6.11,22.91,22.91,0,0,1-1.33-8h0a22.76,22.76,0,0,1,1.33-8A17.09,17.09,0,0,1,615,21.73a16.65,16.65,0,0,1,5.88-3.85A20.89,20.89,0,0,1,628.51,16.54Zm0,31.69h0q4.68,0,6.93-3.15c1.5-2.09,2.25-5.17,2.25-9.21h0q0-6.07-2.25-9.24t-6.93-3.19h0q-4.75,0-7,3.2c-1.51,2.14-2.27,5.21-2.27,9.23h0c0,4,.76,7.09,2.27,9.2S625.34,48.23,628.51,48.23Zm26.13-31.11h9V54.63h-9ZM665,6.19h0a5.22,5.22,0,0,1-.47,2.19,6.52,6.52,0,0,1-1.25,1.8,6.69,6.69,0,0,1-1.86,1.23,5.71,5.71,0,0,1-2.27.45h0a5.53,5.53,0,0,1-2.21-.45,6.58,6.58,0,0,1-1.81-1.23,6,6,0,0,1-1.21-1.8,5.07,5.07,0,0,1-.47-2.19h0a5.46,5.46,0,0,1,.47-2.27,5.9,5.9,0,0,1,1.21-1.83A5.92,5.92,0,0,1,657,.88a5.38,5.38,0,0,1,2.21-.47h0a5.56,5.56,0,0,1,2.27.47,6,6,0,0,1,1.86,1.21,6.38,6.38,0,0,1,1.25,1.83A5.63,5.63,0,0,1,665,6.19ZM702.6,21.76l-2.37,3.29a4.28,4.28,0,0,1-.79.8,1.75,1.75,0,0,1-1.11.3h0a2.57,2.57,0,0,1-1.36-.41c-.44-.29-1-.6-1.56-.95a11.06,11.06,0,0,0-2.18-1,10,10,0,0,0-3.13-.42h0a9.62,9.62,0,0,0-4.17.86,7.9,7.9,0,0,0-3,2.47,11.06,11.06,0,0,0-1.77,3.89,20.94,20.94,0,0,0-.59,5.17h0a20.31,20.31,0,0,0,.65,5.35,11.67,11.67,0,0,0,1.84,3.92A8,8,0,0,0,686,47.48a8.9,8.9,0,0,0,3.88.82h0a9.63,9.63,0,0,0,3.49-.53,11.06,11.06,0,0,0,2.26-1.17c.6-.43,1.13-.82,1.58-1.17a2.41,2.41,0,0,1,1.52-.52h0a1.84,1.84,0,0,1,1.65.83h0L703,49A16.61,16.61,0,0,1,699.72,52a17.33,17.33,0,0,1-3.64,1.9,19.18,19.18,0,0,1-3.89,1,27.2,27.2,0,0,1-4,.3h0a16.57,16.57,0,0,1-6.54-1.31,15.35,15.35,0,0,1-5.36-3.78A18.18,18.18,0,0,1,672.68,44a23.76,23.76,0,0,1-1.33-8.21h0a23.87,23.87,0,0,1,1.19-7.65A17.13,17.13,0,0,1,676,22a16,16,0,0,1,5.7-4,19.74,19.74,0,0,1,7.83-1.46h0a18.72,18.72,0,0,1,7.35,1.34,18,18,0,0,1,5.69,3.88Zm21.64-5.22h0a18.29,18.29,0,0,1,6.52,1.12A14.38,14.38,0,0,1,735.9,21a15,15,0,0,1,3.36,5.34,20,20,0,0,1,1.21,7.21h0a16.08,16.08,0,0,1-.08,1.71,2.75,2.75,0,0,1-.34,1,1.39,1.39,0,0,1-.64.56,2.75,2.75,0,0,1-1,.16H715.21q.4,5.77,3.11,8.48a9.7,9.7,0,0,0,7.17,2.71h0a12.11,12.11,0,0,0,3.78-.52,17.41,17.41,0,0,0,2.78-1.14c.79-.41,1.48-.78,2.08-1.12a3.47,3.47,0,0,1,1.74-.51h0a1.93,1.93,0,0,1,1,.22,2.2,2.2,0,0,1,.69.61h0L740.14,49A15.17,15.17,0,0,1,736.77,52a18.19,18.19,0,0,1-3.89,1.9,21.93,21.93,0,0,1-4.12,1,28.84,28.84,0,0,1-4.08.3h0a20,20,0,0,1-7.28-1.31A16.32,16.32,0,0,1,711.55,50a17.84,17.84,0,0,1-3.9-6.29,24.07,24.07,0,0,1-1.44-8.68h0a20.66,20.66,0,0,1,1.25-7.21A16.6,16.6,0,0,1,716.7,18,18.68,18.68,0,0,1,724.24,16.54Zm.18,6.46h0a8.31,8.31,0,0,0-6.17,2.24,11,11,0,0,0-2.85,6.32h17a11.13,11.13,0,0,0-.48-3.31,7.55,7.55,0,0,0-1.47-2.72,6.8,6.8,0,0,0-2.48-1.84A8.33,8.33,0,0,0,724.42,23ZM793.17,6.74l-2.41,4.64a2.79,2.79,0,0,1-.92,1.14,2.47,2.47,0,0,1-1.27.32h0a3.21,3.21,0,0,1-1.64-.56c-.61-.38-1.34-.8-2.16-1.27a18.4,18.4,0,0,0-2.9-1.26,12.16,12.16,0,0,0-3.93-.57h0a11.52,11.52,0,0,0-3.57.5,7.62,7.62,0,0,0-2.56,1.37,5.54,5.54,0,0,0-1.55,2.11,6.85,6.85,0,0,0-.51,2.68h0a4.66,4.66,0,0,0,1,3.11,8.51,8.51,0,0,0,2.76,2.12,24.54,24.54,0,0,0,3.9,1.57c1.47.46,3,1,4.49,1.49A37.6,37.6,0,0,1,786.42,26a15,15,0,0,1,3.9,2.63,11.8,11.8,0,0,1,2.77,3.89,13.53,13.53,0,0,1,1,5.58h0a18.34,18.34,0,0,1-1.21,6.71,15.56,15.56,0,0,1-3.58,5.46,17.14,17.14,0,0,1-5.76,3.65,21.25,21.25,0,0,1-7.8,1.34h0a25.16,25.16,0,0,1-5-.5,26.22,26.22,0,0,1-4.69-1.41,24.55,24.55,0,0,1-4.2-2.19,21,21,0,0,1-3.49-2.85h0l2.85-4.72a3.27,3.27,0,0,1,1-.85,2.3,2.3,0,0,1,1.26-.35h0a3.51,3.51,0,0,1,2,.74c.72.5,1.55,1.06,2.52,1.67a20.21,20.21,0,0,0,3.39,1.67,13.4,13.4,0,0,0,4.7.74h0a9.61,9.61,0,0,0,6.5-2,7.16,7.16,0,0,0,2.31-5.73h0a5.27,5.27,0,0,0-1-3.39,8.52,8.52,0,0,0-2.76-2.21,20.4,20.4,0,0,0-3.92-1.52c-1.46-.42-2.95-.87-4.46-1.36a39.25,39.25,0,0,1-4.46-1.75,14,14,0,0,1-3.9-2.67,12.3,12.3,0,0,1-2.77-4.1,15.83,15.83,0,0,1-1-6.1h0a14.54,14.54,0,0,1,4.51-10.49,16.73,16.73,0,0,1,5.43-3.4,19.78,19.78,0,0,1,7.34-1.28h0a24.55,24.55,0,0,1,8.63,1.47,19.44,19.44,0,0,1,6.72,4.09Zm23.47,9.8h0a18.31,18.31,0,0,1,6.53,1.12A14.47,14.47,0,0,1,828.31,21a15.17,15.17,0,0,1,3.37,5.34,20.23,20.23,0,0,1,1.19,7.21h0a13.8,13.8,0,0,1-.08,1.71,2.45,2.45,0,0,1-.34,1,1.37,1.37,0,0,1-.63.56,2.73,2.73,0,0,1-1,.16H807.62c.26,3.85,1.3,6.68,3.1,8.48a9.7,9.7,0,0,0,7.17,2.71h0a12.11,12.11,0,0,0,3.78-.52,16.67,16.67,0,0,0,2.78-1.14c.79-.41,1.48-.78,2.08-1.12a3.53,3.53,0,0,1,1.74-.51h0a1.88,1.88,0,0,1,1,.22,2,2,0,0,1,.7.61h0L832.55,49A15.35,15.35,0,0,1,829.19,52a19,19,0,0,1-3.9,1.9,21.84,21.84,0,0,1-4.13,1,28.84,28.84,0,0,1-4.08.3h0a20,20,0,0,1-7.27-1.31A16.19,16.19,0,0,1,804,50a18,18,0,0,1-3.92-6.29,24.3,24.3,0,0,1-1.42-8.68h0a20.65,20.65,0,0,1,1.24-7.21,17.39,17.39,0,0,1,3.55-5.9,17.05,17.05,0,0,1,5.68-4A18.75,18.75,0,0,1,816.64,16.54Zm.19,6.46h0a8.35,8.35,0,0,0-6.18,2.24,11.1,11.1,0,0,0-2.85,6.32h17a11.46,11.46,0,0,0-.47-3.31,7.84,7.84,0,0,0-1.46-2.72,6.92,6.92,0,0,0-2.49-1.84A8.33,8.33,0,0,0,816.83,23Zm32.42,31.63h-9V17.12h5.3a2.81,2.81,0,0,1,1.93.51,2.88,2.88,0,0,1,.73,1.76h0l.56,4.53a17.66,17.66,0,0,1,4.71-5.48,9.87,9.87,0,0,1,6.07-2h0a7.78,7.78,0,0,1,4.6,1.29h0L863,24.46a1.38,1.38,0,0,1-.46.94,1.67,1.67,0,0,1-1,.28h0a5.82,5.82,0,0,1-1.49-.27,10.71,10.71,0,0,0-2.53-.24h0a7.67,7.67,0,0,0-4.83,1.55,12,12,0,0,0-3.39,4.54h0Zm54.5-37.51L888.88,54.63h-8.19L865.78,17.12h7.48a2.86,2.86,0,0,1,1.67.47,2.57,2.57,0,0,1,.94,1.21h0l7.23,20c.41,1.17.76,2.31,1,3.43s.53,2.25.75,3.37h0c.22-1.12.47-2.24.74-3.37a33.79,33.79,0,0,1,1.09-3.43h0l7.42-20a2.51,2.51,0,0,1,.91-1.21,2.68,2.68,0,0,1,1.58-.47h7.12Zm5.92,0h9V54.63h-9ZM920.06,6.19h0a5.09,5.09,0,0,1-.49,2.19,6.12,6.12,0,0,1-1.25,1.8,6.79,6.79,0,0,1-1.85,1.23,5.73,5.73,0,0,1-2.26.45h0a5.49,5.49,0,0,1-2.21-.45,6.34,6.34,0,0,1-1.82-1.23A6,6,0,0,1,909,8.38a5.21,5.21,0,0,1-.46-2.19h0A5.62,5.62,0,0,1,909,3.92a5.92,5.92,0,0,1,1.22-1.83A5.74,5.74,0,0,1,912,.88a5.35,5.35,0,0,1,2.21-.47h0a5.58,5.58,0,0,1,2.26.47,6.11,6.11,0,0,1,1.85,1.21,6,6,0,0,1,1.25,1.83A5.48,5.48,0,0,1,920.06,6.19Zm37.58,15.57-2.39,3.29a3.75,3.75,0,0,1-.79.8,1.75,1.75,0,0,1-1.11.3h0a2.5,2.5,0,0,1-1.34-.41c-.44-.29-1-.6-1.58-.95a10.56,10.56,0,0,0-2.18-1,10,10,0,0,0-3.12-.42h0a9.51,9.51,0,0,0-4.16.86,7.79,7.79,0,0,0-3,2.47,11.06,11.06,0,0,0-1.77,3.89,21,21,0,0,0-.58,5.17h0a20.78,20.78,0,0,0,.63,5.35,11.68,11.68,0,0,0,1.85,3.92A7.9,7.9,0,0,0,941,47.48a8.79,8.79,0,0,0,3.87.82h0a9.57,9.57,0,0,0,3.48-.53,10.56,10.56,0,0,0,2.26-1.17q.92-.65,1.59-1.17a2.41,2.41,0,0,1,1.52-.52h0a1.81,1.81,0,0,1,1.64.83h0L958,49A16.65,16.65,0,0,1,954.74,52a17.33,17.33,0,0,1-3.64,1.9,19,19,0,0,1-3.89,1,26.86,26.86,0,0,1-4,.3h0a16.58,16.58,0,0,1-6.55-1.31,15.22,15.22,0,0,1-5.35-3.78A18.53,18.53,0,0,1,927.7,44a23.76,23.76,0,0,1-1.33-8.21h0a23.87,23.87,0,0,1,1.19-7.65A17.43,17.43,0,0,1,931.05,22a16.14,16.14,0,0,1,5.7-4,19.81,19.81,0,0,1,7.83-1.46h0A18.82,18.82,0,0,1,952,17.88a18.39,18.39,0,0,1,5.69,3.88Zm21.62-5.22h0a18.4,18.4,0,0,1,6.54,1.12A14.42,14.42,0,0,1,990.93,21a15.15,15.15,0,0,1,3.36,5.34,20.22,20.22,0,0,1,1.2,7.21h0a16.08,16.08,0,0,1-.08,1.71,2.6,2.6,0,0,1-.33,1,1.44,1.44,0,0,1-.64.56,2.73,2.73,0,0,1-1,.16H970.24c.26,3.85,1.3,6.68,3.1,8.48a9.7,9.7,0,0,0,7.17,2.71h0a12.11,12.11,0,0,0,3.78-.52,16.67,16.67,0,0,0,2.78-1.14c.79-.41,1.49-.78,2.09-1.12a3.49,3.49,0,0,1,1.73-.51h0a1.91,1.91,0,0,1,1,.22,2.13,2.13,0,0,1,.7.61h0L995.17,49A15.35,15.35,0,0,1,991.81,52a19.16,19.16,0,0,1-3.89,1.9,22.32,22.32,0,0,1-4.14,1,28.84,28.84,0,0,1-4.08.3h0a20,20,0,0,1-7.27-1.31A16.32,16.32,0,0,1,966.58,50a18.15,18.15,0,0,1-3.91-6.29,24.3,24.3,0,0,1-1.42-8.68h0a20.65,20.65,0,0,1,1.24-7.21,17.28,17.28,0,0,1,3.57-5.9,16.77,16.77,0,0,1,5.66-4A18.71,18.71,0,0,1,979.26,16.54Zm.19,6.46h0a8.35,8.35,0,0,0-6.18,2.24,11,11,0,0,0-2.85,6.32h17a11.46,11.46,0,0,0-.47-3.31,7.84,7.84,0,0,0-1.46-2.72A6.92,6.92,0,0,0,983,23.69,8.33,8.33,0,0,0,979.45,23Z" style="fill:#e8ebf7"/><path id="a9bd555f-5573-446d-bf00-bff6771dd840" data-name="text-1" d="M427.89,76.27,420,106.71h-5.42l-5.17-18.16c-.22-.79-.5-1.93-.83-3.43s-.54-2.53-.6-3.11h0c-.14.89-.36,2-.68,3.46s-.57,2.47-.78,3.17h0l-5,18.07H396l-3.93-15.24-4-15.2h5.08L397.52,94a76,76,0,0,1,1.46,7.54h0q.22-1.77.69-4c.3-1.46.58-2.64.83-3.54h0l4.95-17.78h4.94l5.09,17.86a69,69,0,0,1,1.53,7.42h0a54.46,54.46,0,0,1,1.5-7.58h0l4.34-17.7Zm13.84,30.86h0q-5.37,0-8.4-3.14c-2-2.09-3-5-3-8.63h0q0-5.64,2.81-8.87a9.73,9.73,0,0,1,7.73-3.23h0A9.51,9.51,0,0,1,448.05,86a10.56,10.56,0,0,1,2.64,7.61h0V96.3H435.34a7.65,7.65,0,0,0,1.81,5.16,6.31,6.31,0,0,0,4.81,1.8h0a17.69,17.69,0,0,0,3.81-.39,20.82,20.82,0,0,0,3.78-1.28h0v4a14.86,14.86,0,0,1-3.63,1.2A21.88,21.88,0,0,1,441.73,107.13ZM440.84,87h0a5,5,0,0,0-3.74,1.48,7,7,0,0,0-1.68,4.31h10.46a6.43,6.43,0,0,0-1.37-4.32A4.7,4.7,0,0,0,440.84,87Zm31.09,7.58h.12l2.77-3.46,6.95-7.41h5.65l-9.26,9.89L488,106.71h-5.74l-7.39-10.1-2.69,2.21v7.89h-4.86V74.31h4.86v15.8Zm29.84,12.58h0q-5.37,0-8.4-3.14c-2-2.09-3-5-3-8.63h0c0-3.76.93-6.72,2.81-8.87a9.71,9.71,0,0,1,7.72-3.23h0A9.48,9.48,0,0,1,508.08,86a10.52,10.52,0,0,1,2.65,7.61h0V96.3H495.37a7.66,7.66,0,0,0,1.82,5.16,6.31,6.31,0,0,0,4.81,1.8h0a17.59,17.59,0,0,0,3.8-.39,20.82,20.82,0,0,0,3.78-1.28h0v4a14.65,14.65,0,0,1-3.62,1.2A21.88,21.88,0,0,1,501.77,107.13ZM500.87,87h0a4.93,4.93,0,0,0-3.73,1.48,7,7,0,0,0-1.68,4.31h10.46a6.38,6.38,0,0,0-1.38-4.32A4.7,4.7,0,0,0,500.87,87Zm25.48,20.16h0c-3.59,0-6.39-1-8.42-3.14s-3-5-3-8.63h0c0-3.76.93-6.72,2.81-8.87a9.72,9.72,0,0,1,7.73-3.23h0a9.47,9.47,0,0,1,7.2,2.78,10.56,10.56,0,0,1,2.64,7.61h0V96.3H520a7.6,7.6,0,0,0,1.81,5.16,6.31,6.31,0,0,0,4.81,1.8h0a17.53,17.53,0,0,0,3.8-.39,20.82,20.82,0,0,0,3.78-1.28h0v4a14.65,14.65,0,0,1-3.62,1.2A21.92,21.92,0,0,1,526.35,107.13ZM525.45,87h0a4.92,4.92,0,0,0-3.74,1.48A7.07,7.07,0,0,0,520,92.76h10.45a6.33,6.33,0,0,0-1.37-4.32A4.7,4.7,0,0,0,525.45,87Zm27.09,20.16h0a8.07,8.07,0,0,1-6.79-3.15h-.29c.2,2,.29,3.13.29,3.54h0V117h-4.89V83.68h3.95c.11.43.34,1.45.69,3.08h.25a7.68,7.68,0,0,1,6.87-3.5h0a8,8,0,0,1,6.72,3.12c1.6,2.09,2.41,5,2.41,8.77h0q0,5.66-2.45,8.82A8.07,8.07,0,0,1,552.54,107.13Zm-1.19-19.87h0A5.1,5.1,0,0,0,547.09,89q-1.33,1.71-1.34,5.46h0v.72c0,2.81.45,4.84,1.33,6.09a5,5,0,0,0,4.35,1.89h0a4.42,4.42,0,0,0,3.92-2.08,10.83,10.83,0,0,0,1.37-5.94h0a10.38,10.38,0,0,0-1.36-5.86A4.57,4.57,0,0,0,551.35,87.26Zm32.9,19.45-9.25-23h5.33L585,96.74a25.46,25.46,0,0,1,1.41,5.25h.16a23.19,23.19,0,0,1,.69-2.78q.5-1.65,5.29-15.53h5.29L588,109.78q-2.68,7.17-9,7.18h0a14.44,14.44,0,0,1-3.16-.35h0v-3.87a12,12,0,0,0,2.52.24h0q3.54,0,5-4.1h0ZM621.8,95.15h0q0,5.66-2.89,8.82a10.39,10.39,0,0,1-8.06,3.16h0a11,11,0,0,1-5.71-1.46,9.58,9.58,0,0,1-3.81-4.19A14.24,14.24,0,0,1,600,95.15h0c0-3.73,1-6.65,2.87-8.74s4.62-3.15,8.1-3.15h0a10.12,10.12,0,0,1,7.91,3.22Q621.81,89.69,621.8,95.15Zm-16.76,0h0q0,8,5.89,8h0q5.84,0,5.83-8h0q0-7.89-5.87-7.89h0a5,5,0,0,0-4.47,2A10.41,10.41,0,0,0,605,95.15Zm42.48,11.56h-3.86l-.68-3h-.25a6.92,6.92,0,0,1-2.91,2.52,9.69,9.69,0,0,1-4.29.92h0c-2.8,0-4.88-.69-6.26-2.08s-2.06-3.49-2.06-6.31h0V83.68h4.94v14.2a6.17,6.17,0,0,0,1.08,4,4.14,4.14,0,0,0,3.4,1.32h0a5.41,5.41,0,0,0,4.53-1.84c1-1.23,1.45-3.29,1.45-6.18h0V83.68h4.91Zm29.74-23.45h0a11.66,11.66,0,0,1,2.43.21h0L679.21,88a9.62,9.62,0,0,0-2.17-.25h0a6.31,6.31,0,0,0-4.76,1.91,7,7,0,0,0-1.81,5h0v12h-4.9v-23h3.83l.65,4.06h.25a9.08,9.08,0,0,1,3-3.27A7.15,7.15,0,0,1,677.26,83.26Zm26.8,23.45H700.2l-.69-3h-.25a7,7,0,0,1-2.9,2.52,9.74,9.74,0,0,1-4.3.92h0q-4.18,0-6.25-2.08t-2.06-6.31h0V83.68h4.94v14.2a6.17,6.17,0,0,0,1.08,4,4.13,4.13,0,0,0,3.39,1.32h0a5.39,5.39,0,0,0,4.53-1.84q1.45-1.85,1.45-6.18h0V83.68h4.92Zm27.24-15v15h-4.93V92.55a6.19,6.19,0,0,0-1.06-4,4.14,4.14,0,0,0-3.41-1.32h0a5.4,5.4,0,0,0-4.54,1.84q-1.44,1.82-1.44,6.14h0v11.47H711v-23h3.83l.69,3h.25a6.78,6.78,0,0,1,3-2.54,9.82,9.82,0,0,1,4.24-.9h0q8.29,0,8.3,8.44Zm27.06,0v15h-4.91V92.55a6.13,6.13,0,0,0-1.08-4,4.11,4.11,0,0,0-3.4-1.32h0a5.4,5.4,0,0,0-4.54,1.84Q743,90.92,743,95.24h0v11.47H738.1v-23h3.83l.69,3h.25a6.81,6.81,0,0,1,3-2.54,9.91,9.91,0,0,1,4.26-.9h0q8.28,0,8.28,8.44Zm11.71-8v23h-4.9v-23Zm-5.19-6.11h0a2.69,2.69,0,0,1,.72-2,2.81,2.81,0,0,1,2-.71h0a2.75,2.75,0,0,1,2,.71,2.69,2.69,0,0,1,.72,2h0a2.64,2.64,0,0,1-.72,2,2.72,2.72,0,0,1-2,.72h0a2.77,2.77,0,0,1-2-.72A2.64,2.64,0,0,1,764.88,77.57ZM797.33,91.7v15h-4.92V92.55a6.19,6.19,0,0,0-1.07-4,4.14,4.14,0,0,0-3.41-1.32h0a5.4,5.4,0,0,0-4.54,1.84c-1,1.21-1.43,3.26-1.43,6.14h0v11.47h-4.9v-23h3.83l.69,3h.25a6.78,6.78,0,0,1,3-2.54,9.84,9.84,0,0,1,4.25-.9h0q8.28,0,8.29,8.44Zm18.28-8h8v2.69l-3.94.72a6.37,6.37,0,0,1,.89,1.79,7.08,7.08,0,0,1,.36,2.26h0a6.89,6.89,0,0,1-2.46,5.6,10.28,10.28,0,0,1-6.77,2h0a11.05,11.05,0,0,1-2-.17h0a2.77,2.77,0,0,0-1.58,2.29h0a1.28,1.28,0,0,0,.74,1.19,6.48,6.48,0,0,0,2.72.39h4a8.9,8.9,0,0,1,5.79,1.63,5.7,5.7,0,0,1,2,4.68h0a6.8,6.8,0,0,1-3.24,6c-2.14,1.42-5.26,2.13-9.33,2.13h0c-3.13,0-5.53-.56-7.18-1.67a5.37,5.37,0,0,1-2.47-4.75h0a5,5,0,0,1,1.34-3.56,7.19,7.19,0,0,1,3.76-2h0a3.54,3.54,0,0,1-1.61-1.34,3.36,3.36,0,0,1-.64-2h0a3.3,3.3,0,0,1,.73-2.18,8.32,8.32,0,0,1,2.16-1.78h0a6.36,6.36,0,0,1-2.9-2.5,7.33,7.33,0,0,1-1.12-4.07h0a7.29,7.29,0,0,1,2.36-5.81c1.58-1.38,3.82-2.07,6.74-2.07h0a16.58,16.58,0,0,1,2.06.14,12.45,12.45,0,0,1,1.61.28ZM805.48,110.3h0a2.71,2.71,0,0,0,1.44,2.44,7.92,7.92,0,0,0,4,.85h0a12.15,12.15,0,0,0,6-1.15,3.44,3.44,0,0,0,2-3h0a2.27,2.27,0,0,0-1.06-2.13,8.55,8.55,0,0,0-4-.64h-3.72a5.18,5.18,0,0,0-3.33,1A3.24,3.24,0,0,0,805.48,110.3Zm2.11-19.16h0a4.57,4.57,0,0,0,1.12,3.32,4.18,4.18,0,0,0,3.19,1.17h0q4.25,0,4.25-4.54h0a5.18,5.18,0,0,0-1-3.47,4,4,0,0,0-3.2-1.21h0a4.14,4.14,0,0,0-3.22,1.2A5.11,5.11,0,0,0,807.59,91.14Z" style="fill:#a82110"/></g><path d="M257.44,109H93.34l0-1c0-.19,1-19.62-10.1-31.39-5.66-6-13.51-9-23.35-9-9.48,0-17,2.93-22.37,8.71C27,87.7,28.22,106.68,28.23,106.87l.08,1.14-1.14-.08C22.64,107.6,0,105.61,0,98.85L.11,83.39c.94-1.84,3.37-7.13,3.37-9.4,0-.71,0-1.48-.1-2.28-.16-2.63-.35-5.6,1.09-7.77.36-.53,9.14-13.15,45.88-19.11,18.71-3,37.85-5.3,56.9-6.7l1.84-.15c1.11-.36,14.08-7.65,22.66-12.46,4.28-2.41,8.17-4.6,10.62-5.94,8.46-4.67,19.23-9.92,23-11.25,4.06-1.41,21.19-4.24,28.64-4.73,22-1.43,41.26-1.73,55.19-.83,17.85,1.14,24,1.91,25.43,2.13a40.28,40.28,0,0,1,7.45-3.68A25.71,25.71,0,0,1,288,.31a2.06,2.06,0,0,1,1.53.42,8.59,8.59,0,0,1,1.15,2.18c.34.76.71,1.59,1,2.11a8.09,8.09,0,0,0,1.4,1.71c2,.19,12.77,1.2,17.13,1.73,1.34.16,8.09,1,8.89,2.39l.25.42-.17.53c-.15.47-.13,1.84.22,2.07.88.59,20.07,16.68,23.34,20.87,1.61,2.08,3.12,3.69,4.22,4.86,1.41,1.49,1.88,2,1.88,2.65,0,.15-.06.64-.17,1.35a65.39,65.39,0,0,0-.83,9.21V54c0,3.89,0,7.9.8,9A34.85,34.85,0,0,0,353,66.32c3.59,2.48,4.17,2.94,4.17,3.73,0,.11-.3,12.15-.71,13.52-.09.3-.24.69-.41,1.12-.36,1-1,2.55-.81,3.25.5,2-2.66,7.08-2.69,7.13a22.12,22.12,0,0,1-7.13,5.48c-2.83,1.14-20.53,4.69-21.28,4.84l-1.24.25.07-1.27c0-.17.74-16.77-9.33-27.38C308,71.07,300.08,68.06,290,68.06c-8.73,0-15.83,2.77-21.09,8.24-11.13,11.55-10.52,31.5-10.51,31.7l0,1Zm-162-2h161c0-4.37.71-21.35,11.07-32.11,5.65-5.87,13.23-8.85,22.52-8.85,10.63,0,19.06,3.21,25.08,9.55C324.22,85.24,325,99,325,103.2c6.57-1.33,17.72-3.68,19.73-4.49A21,21,0,0,0,350.93,94c.74-1.11,2.57-4.73,2.43-5.56-.33-1.3.34-3,.88-4.43.14-.38.27-.72.35-1,.26-1,.58-10.66.62-12.65-.51-.48-2.11-1.58-3.31-2.42a28.29,28.29,0,0,1-4.82-3.73c-1.17-1.52-1.22-4.85-1.21-10.16V52.8a68.4,68.4,0,0,1,.85-9.5c.06-.39.11-.69.13-.9-.21-.29-.77-.88-1.32-1.46-1.13-1.2-2.67-2.85-4.34-5-3.07-3.95-22-19.84-22.88-20.45-1.2-.79-1.27-2.56-1.13-3.65A37.43,37.43,0,0,0,310,10.4c-4.77-.58-17.28-1.74-17.41-1.75l-.31,0L292,8.41A10.32,10.32,0,0,1,290,6c-.33-.57-.73-1.45-1.1-2.28-.22-.48-.49-1.09-.67-1.44H288a23.48,23.48,0,0,0-5.32.85c-2.51.7-7.21,3.61-7.26,3.64l-.32.2-.37-.07c-.05,0-5.11-.84-25.6-2.16-13.84-.89-33-.59-54.94.84-7.88.51-24.47,3.34-28.12,4.61s-14.51,6.58-22.75,11.11c-2.44,1.35-6.33,3.54-10.6,5.94-17.75,10-22.55,12.58-23.35,12.7l-2,.16c-19,1.4-38.08,3.65-56.74,6.68C14.78,52.6,6.2,64.91,6.12,65,5,66.65,5.2,69.16,5.36,71.59c0,.83.1,1.65.1,2.4,0,3-2.82,8.74-3.49,10.08V98.85c0,3.5,13.81,6.15,24.24,7-.14-4.42.12-20.4,9.91-30.94,5.75-6.2,13.77-9.35,23.82-9.35,10.4,0,18.74,3.25,24.79,9.66C95,86.16,95.47,102.7,95.4,107Z" style="fill:#e8ebf7"/><path d="M60.51,123.09A26.64,26.64,0,1,1,87.14,96.45,26.66,26.66,0,0,1,60.51,123.09Zm0-51.29A24.66,24.66,0,1,0,85.17,96.46,24.68,24.68,0,0,0,60.51,71.8Z" style="fill:#e8ebf7"/><path d="M60.51,117.75A21.3,21.3,0,1,1,81.8,96.46,21.32,21.32,0,0,1,60.51,117.75Zm0-40.61A19.32,19.32,0,1,0,79.83,96.46,19.33,19.33,0,0,0,60.51,77.14Z" style="fill:#e8ebf7"/><path d="M60.51,101.73a5.28,5.28,0,1,1,5.27-5.27A5.28,5.28,0,0,1,60.51,101.73Zm0-8.58a3.31,3.31,0,1,0,3.3,3.3A3.3,3.3,0,0,0,60.51,93.15Z" style="fill:#e8ebf7"/><rect x="57.58" y="76.5" width="1.97" height="16.02" style="fill:#e8ebf7"/><rect x="61.58" y="76.5" width="1.97" height="16.02" style="fill:#e8ebf7"/><rect x="43.4" y="103.88" width="16.66" height="1.97" transform="translate(-62.71 80.87) rotate(-51.9)" style="fill:#e8ebf7"/><rect x="46.55" y="106.35" width="16.66" height="1.97" transform="translate(-63.45 84.29) rotate(-51.9)" style="fill:#e8ebf7"/><rect x="47.49" y="85.84" width="1.97" height="16.39" transform="translate(-56.59 106.46) rotate(-69.48)" style="fill:#e8ebf7"/><rect x="48.89" y="82.09" width="1.97" height="16.39" transform="translate(-52.17 105.35) rotate(-69.48)" style="fill:#e8ebf7"/><rect x="68.32" y="96.54" width="1.97" height="16.66" transform="translate(-49.97 65.2) rotate(-38.14)" style="fill:#e8ebf7"/><rect x="65.19" y="99.02" width="1.97" height="16.66" transform="translate(-52.18 63.81) rotate(-38.15)" style="fill:#e8ebf7"/><rect x="64.37" y="93.07" width="16.4" height="1.97" transform="translate(-28.45 31.54) rotate(-20.6)" style="fill:#e8ebf7"/><rect x="62.96" y="89.32" width="16.4" height="1.97" transform="translate(-27.22 30.81) rotate(-20.6)" style="fill:#e8ebf7"/><path d="M290.75,123.09a26.64,26.64,0,1,1,26.62-26.64A26.67,26.67,0,0,1,290.75,123.09Zm0-51.29A24.66,24.66,0,1,0,315.4,96.46,24.68,24.68,0,0,0,290.75,71.8Z" style="fill:#e8ebf7"/><path d="M290.75,117.75A21.3,21.3,0,1,1,312,96.46,21.32,21.32,0,0,1,290.75,117.75Zm0-40.61a19.32,19.32,0,1,0,19.32,19.32A19.33,19.33,0,0,0,290.75,77.14Z" style="fill:#e8ebf7"/><path d="M290.75,101.73A5.28,5.28,0,1,1,296,96.46,5.28,5.28,0,0,1,290.75,101.73Zm0-8.58a3.31,3.31,0,1,0,3.29,3.3A3.31,3.31,0,0,0,290.75,93.15Z" style="fill:#e8ebf7"/><rect x="287.82" y="76.5" width="1.97" height="16.02" style="fill:#e8ebf7"/><rect x="291.82" y="76.5" width="1.97" height="16.02" style="fill:#e8ebf7"/><rect x="273.63" y="103.87" width="16.66" height="1.97" transform="translate(25.47 262.04) rotate(-51.9)" style="fill:#e8ebf7"/><rect x="276.78" y="106.34" width="16.66" height="1.97" transform="translate(24.73 265.47) rotate(-51.9)" style="fill:#e8ebf7"/><rect x="277.73" y="85.83" width="1.97" height="16.39" transform="matrix(0.35, -0.94, 0.94, 0.35, 92.94, 322.08)" style="fill:#e8ebf7"/><rect x="279.13" y="82.08" width="1.97" height="16.39" transform="translate(97.35 320.96) rotate(-69.48)" style="fill:#e8ebf7"/><rect x="298.56" y="96.54" width="1.97" height="16.66" transform="translate(-0.82 207.39) rotate(-38.14)" style="fill:#e8ebf7"/><rect x="295.44" y="99.01" width="1.97" height="16.66" transform="translate(-2.99 206.03) rotate(-38.15)" style="fill:#e8ebf7"/><rect x="294.62" y="93.07" width="16.4" height="1.97" transform="translate(-13.73 112.54) rotate(-20.6)" style="fill:#e8ebf7"/><rect x="293.21" y="89.32" width="16.4" height="1.97" transform="translate(-12.5 111.81) rotate(-20.6)" style="fill:#e8ebf7"/><path d="M19.74,75.68c-1.41,0-7.17-.33-7.67-.5-.9-.29-5.1-7.06-5.1-8.69,0-2.49,5.17-5.37,10.16-6.71C21.52,58.6,29,58.47,32,58.47c2.08,0,3.55.05,4.07.11,1.87.2,4.37,3,4.85,3.5l.77.88-1,.61C28,71.43,21.21,75.49,20.6,75.62A3.24,3.24,0,0,1,19.74,75.68Zm-6.86-2.35c1,.08,5.2.38,6.86.38h.46c.79-.34,11.34-6.79,18.46-11.17a7.24,7.24,0,0,0-2.77-2c-.47,0-2-.1-3.86-.1-2.29,0-10.11.09-14.39,1.24C12.06,63.19,9,65.74,9,66.5,9,67.47,11.94,72.14,12.88,73.33Z" style="fill:#e8ebf7"/><path d="M1.67,99.31l-.12-2,12.58-.75a46.76,46.76,0,0,0-.86-6.92A107.2,107.2,0,0,0,1.41,86.84l.39-1.93c12.08,2.39,12.73,3.15,13,3.44.58.68,1.06,3.75,1.4,9.11l.06,1Z" style="fill:#e8ebf7"/><path d="M344,38.78c-15-.09-15.49-.32-15.73-.44s-18.6-18.39-19-19.85l-.12-.41.22-.4c.13-.21.36-.61,8.23-5.9l1.1,1.64c-2.81,1.89-5.85,4-7.14,4.94,2.7,3.15,15.71,16.48,17.6,18.17,1.49.15,9.76.25,14.87.28Z" style="fill:#e8ebf7"/><path d="M343.2,63.38c-2.31,0-6.74-1.6-7.12-1.79-.79-.4-12.63-13.8-13.33-15.1a2.66,2.66,0,0,1,0-2.37A6.31,6.31,0,0,1,326.86,41c2.41-.59,10.82-.46,14.88.44,4.5,1,6.25,6.15,6.32,6.36l-1.87.63c0-.05-1.48-4.31-4.87-5.06-4.05-.91-12-.94-14-.45a4.37,4.37,0,0,0-2.79,2.05.74.74,0,0,0-.05.64c.66,1.23,11.59,13.49,12.62,14.36.49.21,4.85,1.63,6.3,1.48a9.41,9.41,0,0,0,3.16-1.19l1,1.68a11.36,11.36,0,0,1-4,1.46A3.19,3.19,0,0,1,343.2,63.38Z" style="fill:#e8ebf7"/><path d="M122.72,46.77H122l-.42-1.42-.21-1,.64-.66c3.59-2.5,32.31-22.28,40.14-26.51,8.74-4.71,18.13-7.5,42.64-8.5,3-.12,6.23-.2,9.54-.2,16.48,0,36.18,1.45,58.53,4.35,12.64,1.63,25.39,6.1,25.39,12.4,0,5.26-9.18,12.56-10.22,13.38l-.25.19h-.32L123.83,46S123.1,46.77,122.72,46.77ZM214.33,10.4c-3.29,0-6.48.06-9.46.18-24.13,1-33.3,3.65-41.78,8.23-6.71,3.62-29,18.78-37.24,24.42l161.21-6.41c2.79-2.22,9.21-8.09,9.21-11.62s-8.3-8.47-23.66-10.46C250.33,11.86,230.73,10.4,214.33,10.4Z" style="fill:#e8ebf7"/><path d="M217.12,97.92l-1.89-.54c.08-.29,8.34-29.17,9-32.27s.9-11.91.9-12l1-6.23a15,15,0,0,0-.92-2.1,28.8,28.8,0,0,0-3.88-3.65l-.49-.4,8.39-31.17,1.9.51-8,30A24.2,24.2,0,0,1,227,43.8a16.93,16.93,0,0,1,1.16,2.68l.08.23-1.12,6.58c0,.24-.25,9-.93,12.22S217.46,96.73,217.12,97.92Z" style="fill:#e8ebf7"/><path d="M312.43,75.1l-.75-1.82c.15-.06,14.7-6,18.09-8.13a18.19,18.19,0,0,0,5.33-5.5l1.71,1a20.19,20.19,0,0,1-6,6.17C327.28,69,313,74.86,312.43,75.1Z" style="fill:#e8ebf7"/><path d="M94.11,100.85v-2c.85,0,85.12-.69,113.48-1.54a255.24,255.24,0,0,0,51.93-7.13l.51,1.91a257.83,257.83,0,0,1-52.38,7.19C179.26,100.17,95,100.84,94.11,100.85Z" style="fill:#e8ebf7"/><path d="M115,99.93a137.34,137.34,0,0,1-2.92-13.73c-.91-6.36-.35-29,.81-32.69s8.26-9.36,9.07-10l1.22,1.56c-2.06,1.6-7.56,6.35-8.4,9-1.08,3.47-1.61,25.78-.74,31.82a133.72,133.72,0,0,0,2.87,13.48Z" style="fill:#e8ebf7"/><path d="M218.81,50.4c-.18,0-18.74-.21-19.53-1.25l-.18-.46A2.62,2.62,0,0,1,200.35,46c1.19-.65,14.44-1.6,18.06-1.6a11.21,11.21,0,0,1,1.41.07,2.35,2.35,0,0,1,2.08,2.43c0,1.41-.86,3.22-2.05,3.44A8.82,8.82,0,0,1,218.81,50.4Zm-17.43-2.66c3.37.28,13.87.69,17.43.69l.72,0a3.06,3.06,0,0,0,.37-1.69c0-.14-.08-.24-.37-.28a9.53,9.53,0,0,0-1.12,0A158.92,158.92,0,0,0,201.38,47.74Z" style="fill:#e8ebf7"/><path d="M200.14,49.54l-18,1-18.45,1c-6.74.4-13.93,1-21.12,1.48L85,57.15,142.5,52c7.18-.62,14.37-1.32,21.11-1.84L182,48.86l18-1.3Z" style="fill:#e8ebf7"/><polygon points="220.91 46.43 323.45 44.3 220.92 48.4 220.91 46.43" style="fill:#e8ebf7"/><path d="M131.55,45.06l.12-1.25c.27-2.77.93-7.56,2.45-8.58l1.1,1.63c-.45.41-1.08,3-1.45,5.88L149,40.55a30.26,30.26,0,0,0-.57-6.2c-.36-1.17-3.4-2.61-5.35-3.21l.59-1.89c1,.3,5.86,1.94,6.64,4.53.7,2.34.66,7.41.66,7.63v.84Z" style="fill:#e8ebf7"/><path d="M110.64,42.63c-2.64,0-4.9-.13-5.74-.17a10.27,10.27,0,0,1-5.11-1.93L101,38.91a8.74,8.74,0,0,0,4,1.47c2.18.09,14.76,0,17.18,0a75.47,75.47,0,0,1,9-7.28c4.71-3.32,20-13,27.35-17.61,2-1.23,3.26-2.06,3.48-2.21a3.9,3.9,0,0,0-.91-1.83l1.59-1.17a4.71,4.71,0,0,1,1.24,3.38,1.86,1.86,0,0,1-.83,1.26l-3.52,2.24c-6.76,4.26-22.6,14.26-27.27,17.54a61.55,61.55,0,0,0-9,7.59l-.28.54h-.41C122.18,42.83,115.71,42.63,110.64,42.63Z" style="fill:#e8ebf7"/></g></g></g></svg>